<?xml version="1.0" encoding="utf-8" ?>
<svg xmlns="http://www.w3.org/2000/svg" xmlns:xlink="http://www.w3.org/1999/xlink" width="512" height="512">
	<path fill="#5F8791" transform="scale(0.8 0.8)" d="M91.1412 346.507L91.6664 362.381C96.2044 361.933 100.918 362.179 105.478 362.174L538.099 362.179C541.816 362.187 545.775 362.47 549.462 361.996L549.499 445.366C549.507 449.341 549.929 453.899 548.92 457.753L546.877 463.506C542.287 473.567 532.906 479.839 521.938 480.218L117.264 480.24C104.667 479.764 91.8141 467.191 91.1832 454.412L91.1412 346.507Z"/>
	<path fill="#546C76" transform="scale(0.8 0.8)" d="M497.233 411.615L498.906 411.871C503.023 413.353 504.115 421.168 497.258 422.419C490.761 421.398 488.464 413.364 497.233 411.615Z"/>
	<path fill="#546C76" transform="scale(0.8 0.8)" d="M146.529 412.263C153.355 411.862 154.731 421.015 146.898 422.126C138.436 421.346 139.316 413.833 146.529 412.263Z"/>
	<path fill="#F88986" transform="scale(0.8 0.8)" d="M234.421 401.051L259.609 400.998C260.779 403.26 260.187 408.969 260.203 411.63L260.452 428.353L234.695 428.388L234.421 401.051Z"/>
	<path fill="#F9EF39" transform="scale(0.8 0.8)" d="M296.312 399.772L322.643 400.307C323.054 403.815 322.878 407.509 322.885 411.045L322.894 428.758L296.317 428.578L296.312 399.772Z"/>
	<path fill="#F88986" transform="scale(0.8 0.8)" d="M447.338 401.094L475.084 401.073C474.315 407.092 474.818 413.71 475.314 419.755C475.509 422.134 476.555 425.429 476.135 427.695L475.056 427.804C471.046 428.54 466.864 428.443 462.824 428.482L446.838 428.478L447.338 401.094Z"/>
	<path fill="#F9EF39" transform="scale(0.8 0.8)" d="M175.92 400.227C184.724 400.265 194.231 399.637 203.139 400.709C203.895 403.14 203.47 406.876 203.476 409.465L203.496 428.435L185.635 428.555C182.555 428.553 179.128 428.838 176.095 428.403L175.92 400.227Z"/>
	<path fill="#F88986" transform="scale(0.8 0.8)" d="M380.059 400.165L409.053 400.969C409.307 401.348 409.036 425.195 409.037 427.968L380.009 428.505L380.059 400.165Z"/>
	<path fill="#546C76" transform="scale(0.8 0.8)" d="M91.1433 346.507L91.1266 201.366C91.1286 196.164 90.6013 190.159 91.4991 185.041C93.6345 172.868 103.701 162.326 116.263 160.871C120.677 160.36 125.45 160.711 129.914 160.709L520.169 160.696C522 160.704 523.667 160.747 525.469 161.136L526.045 161.253C537.688 163.689 547.916 173.668 549.3 185.73C549.952 191.414 549.428 197.742 549.429 203.493L549.431 361.958C545.775 362.47 541.816 362.187 538.099 362.179L105.478 362.174C100.918 362.179 96.2044 361.933 91.6664 362.381L91.1433 346.507ZM272.891 232.579C267.611 233.89 266.683 239.303 265.536 243.906L252.631 286.931C251.387 290.954 249.948 295.631 247.811 299.285C245.764 293.359 242.768 285.344 238.281 280.858C234.09 279.341 228.346 280.419 223.932 280.429L166.034 280.484C161.542 280.487 156.296 279.981 151.9 280.658L151.928 292.669L231.968 293.185C233.639 299.113 236.145 304.295 238.484 309.986C240.483 314.851 241.99 325.5 249.062 324.343L249.517 324.276C253.755 323.583 254.705 317.718 255.83 314.31L270.495 270.901C272.356 265.496 273.844 259.605 276.129 254.394C280.212 262.879 285.616 270.764 289.902 279.176L294.682 288.504C297.474 293.987 297.126 292.772 303.358 292.773L361.152 292.757C363.872 292.752 367.009 293.03 369.593 292.137L380.285 273.994L384.55 282.596C390.829 294.791 389.637 293.751 402.989 293.747L421.314 293.738C423.424 293.738 427.581 292.876 428.837 295.009C431.843 300.118 438.518 321.014 443.378 322.683C453.303 326.091 455.695 310.342 458.159 303.888L478.224 252.764C479.7 249.038 481.561 244.989 482.462 241.094C483.44 236.872 475.418 234.16 472.715 236.419C469.58 239.039 467.802 245.921 466.264 249.688L454.809 279.478C451.971 287.15 449.273 294.986 445.738 302.372C438.228 287.458 442.025 281.535 423.927 281.468L407.989 281.46C404.821 281.459 401.514 281.653 398.369 281.27L398.228 280.982C396.218 277.007 393.182 273.344 390.916 269.448C388.429 265.172 384.667 252.57 376.657 257.977C374.183 259.647 371.765 264.782 370.222 267.418L364.489 276.982C364.023 277.78 362.988 280.168 362.3 280.602C362.038 280.768 310.247 280.448 304.585 280.703C303.629 279.724 303.386 278.683 302.78 277.5L280.954 238.438C279.561 235.919 278.34 232.611 275 232.489L272.891 232.579Z"/>
</svg>
